<svg xmlns="http://www.w3.org/2000/svg" viewBox="0 0 128 88" role="img" aria-labelledby="title desc">
  <title id="title">Delivery rider on scooter</title>
  <desc id="desc">A muted semi-isometric delivery rider on a scooter with a rear delivery box.</desc>
  <defs>
    <linearGradient id="body" x1="24" y1="62" x2="94" y2="32" gradientUnits="userSpaceOnUse">
      <stop offset="0" stop-color="#6f8f8b"/>
      <stop offset="0.55" stop-color="#8fa89b"/>
      <stop offset="1" stop-color="#c0c2a6"/>
    </linearGradient>
    <linearGradient id="side" x1="30" y1="70" x2="98" y2="48" gradientUnits="userSpaceOnUse">
      <stop offset="0" stop-color="#536b6f"/>
      <stop offset="1" stop-color="#6f8982"/>
    </linearGradient>
    <linearGradient id="boxTop" x1="75" y1="16" x2="111" y2="35" gradientUnits="userSpaceOnUse">
      <stop offset="0" stop-color="#d7c4a8"/>
      <stop offset="1" stop-color="#b99878"/>
    </linearGradient>
    <linearGradient id="jacket" x1="54" y1="30" x2="78" y2="58" gradientUnits="userSpaceOnUse">
      <stop offset="0" stop-color="#627b7b"/>
      <stop offset="1" stop-color="#4c6268"/>
    </linearGradient>
    <filter id="shadow" x="-20%" y="-20%" width="140%" height="150%">
      <feDropShadow dx="1" dy="2.5" stdDeviation="1.7" flood-color="#26313a" flood-opacity="0.16"/>
    </filter>
  </defs>
  <ellipse cx="65" cy="77" rx="44" ry="9" fill="#243740" opacity="0.18"/>
  <g filter="url(#shadow)" stroke-linejoin="round" stroke-linecap="round" opacity="0.9">
    <g>
      <path d="M76 24 96 14 116 25 96 36Z" fill="url(#boxTop)"/>
      <path d="M76 24 96 36 96 55 76 43Z" fill="#b58a6d"/>
      <path d="M96 36 116 25 116 44 96 55Z" fill="#927760"/>
      <path d="M76 24 96 14 116 25 116 44 96 55 76 43Z" fill="none" stroke="#725e52" stroke-width="1.1" opacity="0.48"/>
      <path d="M86 29 106 19" stroke="#ead8bd" stroke-width="1.3" opacity="0.7"/>
    </g>
    <g>
      <ellipse cx="31" cy="67" rx="12" ry="15" fill="#2a343b" transform="rotate(-18 31 67)"/>
      <ellipse cx="31" cy="67" rx="6.5" ry="8" fill="#b8c3bd" transform="rotate(-18 31 67)"/>
      <ellipse cx="88" cy="63" rx="11" ry="14" fill="#2a343b" transform="rotate(-18 88 63)"/>
      <ellipse cx="88" cy="63" rx="6" ry="7.5" fill="#b8c3bd" transform="rotate(-18 88 63)"/>
    </g>
    <path d="M27 58C34 43 47 37 62 38c15 .3 28 6 34 17-4 8-13 13-27 14l-32 4c-8 1-14-5-10-15Z" fill="url(#body)" stroke="#5c7474" stroke-width="1.2"/>
    <path d="M31 66c11 4 24 4 38 2 14-1 24-6 30-14l5 5c-6 11-19 17-37 19l-32 3c-7 0-12-5-12-11Z" fill="url(#side)" stroke="#53676a" stroke-width="1.1"/>
    <path d="M36 46c6-6 14-8 23-8l-5 24-24 2c0-8 2-14 6-18Z" fill="#e5e1d5" stroke="#728381" stroke-width="1.1"/>
    <path d="M50 40 53 29l8-1 1 14" fill="none" stroke="#536469" stroke-width="2"/>
    <path d="M48 33c-7-.8-12 2-16 8" fill="none" stroke="#4b5c61" stroke-width="2.2"/>
    <circle cx="32" cy="41" r="3.5" fill="#d7a184"/>
    <path d="M59 30c10 1 16 10 17 25-5 3-12 2-18-3-4-8-4-17 1-22Z" fill="url(#jacket)" stroke="#4d6268" stroke-width="1.1"/>
    <path d="M58 51c5 6 12 9 20 10l-5 10c-8-2-15-7-20-14Z" fill="#5b7477" stroke="#4d6268" stroke-width="1.1"/>
    <path d="M57 39c-5 4-10 7-17 8" fill="none" stroke="#5d7475" stroke-width="4.5"/>
    <circle cx="40" cy="47" r="3.8" fill="#d9a084"/>
    <path d="M54 53c-7 1-13 4-20 8" fill="none" stroke="#5d7475" stroke-width="4.5"/>
    <path d="M34 61 42 66" stroke="#4e5658" stroke-width="3"/>
    <circle cx="63" cy="26" r="9" fill="#d7a184"/>
    <path d="M53 25c0-10 8-16 19-14 10 2 15 10 12 20-7-3-15-2-24-1-5-.5-7-2-7-5Z" fill="#9aa890" stroke="#68736a" stroke-width="1.1"/>
    <path d="M57 22c6 4 14 3 23 1" fill="none" stroke="#43524d" stroke-width="2" opacity="0.72"/>
    <path d="M70 13c7 1 12 6 12 12" fill="none" stroke="#d6d0a7" stroke-width="2.4" opacity="0.62"/>
  </g>
</svg>
